<svg width="120" height="90" viewBox="0 0 120 90" fill="none" xmlns="http://www.w3.org/2000/svg">
<path d="M119.914 58.6225V47.115L112.425 45.6541C111.694 42.7315 110.598 39.9919 109.137 37.4344L113.52 31.2238L105.484 23.004L99.2732 27.2053C96.7159 25.5614 93.9763 24.4657 91.0535 23.7344L89.7748 16.2452H78.2673L76.8064 23.7344C73.8838 24.4649 71.1441 25.5614 68.5866 27.0223L62.376 22.6387L54.1563 30.6753L58.3575 36.8859C56.8966 39.4432 55.6179 42.1828 54.8866 45.1057L47.3975 46.3844V57.8919L54.8866 59.3528C55.6171 62.2754 56.7136 65.015 58.1746 67.5725L53.6088 74.1484L61.8286 82.3682L68.0392 78.1669C70.5965 79.8108 73.3361 80.9065 76.2589 81.6378L77.5376 89.127H89.0451L90.506 81.6378C93.4287 80.9073 96.1683 79.8108 98.7258 78.3499L104.936 82.7335L113.156 74.5137L108.955 68.3032C110.599 65.7458 111.695 63.0062 112.426 60.0834L119.914 58.6225ZM110.05 58.4395C109.32 61.5445 108.041 64.65 106.214 67.3897L105.666 68.1201L109.684 73.9654L104.753 79.0802L98.908 75.0619L98.1775 75.6102C95.4379 77.4371 92.3323 78.5328 89.2273 79.2632L88.3139 79.2623L87.0352 86.2033H80.0942L78.8155 79.2623L77.9021 79.0793C74.7971 78.3488 71.6915 77.0701 68.9519 75.2431L68.2214 74.6949L62.1939 78.714L57.262 73.783L61.2803 67.9378L60.732 67.2073C58.9051 64.4677 57.6271 61.3621 57.079 58.2571L56.896 57.3437L49.9559 55.8819V48.941L56.8969 47.6623L57.0799 46.7488C57.8103 43.4609 59.0891 40.5383 60.9161 37.7986L61.4643 37.0682L57.4443 31.223L62.3762 26.2911L68.2214 30.3094L68.9519 29.7611C71.6915 27.9342 74.7971 26.6562 77.9021 26.1081L78.8155 25.9251L80.0942 18.9842H87.0352L88.3139 25.9251L89.2273 26.1081C92.5153 26.8386 95.4379 28.1173 98.1775 29.9443L98.908 30.4926L104.753 26.4743L109.685 31.4061L105.667 37.2514L106.215 37.9818C108.042 40.7215 109.138 43.6441 109.868 46.932L110.051 47.8455L116.992 49.1242V56.0651L110.232 57.526L110.05 58.4395Z" fill="#524EB7"/>
<path d="M83.5633 31.4062C71.8734 31.4062 62.375 40.9047 62.375 52.5945C62.375 58.2568 64.5672 63.5537 68.5855 67.5723C72.6038 71.5906 77.901 73.7828 83.5633 73.7828H83.7463C95.4361 73.7828 104.935 64.2843 104.935 52.5945C104.935 46.9323 102.742 41.6353 98.724 37.6168C94.7057 33.5985 89.4085 31.4062 83.5633 31.4062H83.5633ZM83.5633 71.2268V72.6877V71.2268C78.4484 71.2268 73.8827 69.2176 70.4118 65.7466C66.9409 62.2757 65.1149 57.5268 65.1149 52.5952C65.1149 42.3663 73.5168 34.1465 83.7456 34.1465C88.6775 34.1465 93.244 36.1557 96.7141 39.6267C100.185 43.0976 102.011 47.8465 102.011 52.7781C102.012 62.824 93.7921 71.2268 83.5633 71.2268Z" fill="#524EB7"/>
<path d="M51.7806 34.6924L47.397 31.4045C47.7622 29.3954 47.9452 27.3862 47.7622 25.5593L52.5109 22.8196L49.5883 14.4177L44.1081 15.1482C43.0124 13.5043 41.7338 12.0432 40.2719 10.7646L41.7328 5.46763L33.8784 1.63145L30.5904 6.01505C28.5813 5.64981 26.7543 5.4668 24.7452 5.64982L22.0056 0.901123L13.6045 3.64077L14.335 9.12091C12.691 10.2166 11.23 11.4953 9.95136 12.9571L4.6544 11.4962L0.818215 19.3507L5.20182 22.6386C4.83658 24.6478 4.65357 26.4748 4.83658 28.4838L0.0878906 31.2218L3.0105 39.6237L8.49065 38.8932C9.58634 40.5372 10.865 41.9982 12.3268 43.2768L10.8659 48.5738L18.9025 52.41L22.1904 48.0264C24.1996 48.3916 26.2088 48.5746 28.0357 48.3916L30.7753 53.1403L39.1772 50.2177L38.4468 44.7375C40.0907 43.6418 41.5517 42.3632 42.8304 40.9014L48.1273 42.3623L51.7806 34.6924ZM41.5517 37.9804L41.0035 38.7108C39.5426 40.5378 37.8985 41.9987 35.8886 43.0944L35.1582 43.6427L35.8886 48.5745L31.8703 50.0354L29.496 45.6518L28.5825 45.8349C26.3903 46.0179 24.0159 46.0179 21.8246 45.4696L20.9111 45.2866L17.9885 49.3049L14.1523 47.4779L15.2488 42.3639L14.5183 41.8157C12.6914 40.3548 11.2304 38.7107 10.1347 36.7008L9.76949 35.9712L4.65465 36.7017L3.19375 32.6834L7.57735 30.309L7.39433 29.3955C7.2113 27.0212 7.2113 24.829 7.75956 22.6376L7.94259 21.7241L4.28959 18.6185L6.11655 14.7832L10.8652 16.0619L11.5957 15.3306C13.0566 13.5036 14.7006 12.0427 16.7105 10.947L17.441 10.3988L16.7105 5.46689L20.7288 4.00598L23.1032 8.38959L24.0167 8.20656C26.2089 8.02353 28.5832 8.02353 30.7746 8.5718L31.6881 8.75482L34.6107 4.73652L38.4469 6.56349L37.1682 11.6775L37.8987 12.2257C39.7256 13.6866 41.1866 15.3307 42.2823 17.3406L42.8305 18.071L47.7624 17.3406L49.2233 21.3589L44.8397 23.9156L45.0227 24.829C45.2057 27.0213 45.2057 29.3956 44.6575 31.587L44.4744 32.5005L48.4928 35.4231L46.6658 39.2593L41.5517 37.9804Z" fill="#524EB7"/>
<path d="M26.2093 14.5999C24.9306 14.5999 23.4697 14.7829 22.191 15.3303C19.0861 16.426 16.5287 18.6182 15.0669 21.5408C13.606 24.4635 13.423 27.9335 14.5187 31.0393C16.1626 36.1541 20.9113 39.4412 26.3915 39.4412C27.6702 39.4412 29.1311 39.2582 30.4098 38.7107C33.5147 37.615 36.072 35.4228 37.5339 32.5002C38.9948 29.5776 39.1778 26.1076 38.0821 23.0018C36.2551 18.0707 31.6886 14.5999 26.2093 14.5999ZM34.9765 31.4045C33.8808 33.7789 31.8716 35.4228 29.3143 36.3364C28.4008 36.5194 27.3051 36.7016 26.2093 36.7016C22.008 36.7016 18.3548 34.1443 17.0762 30.1258C16.1627 27.7515 16.3457 25.011 17.6244 22.6366C18.7201 20.2623 20.7294 18.6183 23.2867 17.7047C24.3824 17.3395 25.2959 17.1565 26.3916 17.1565C30.5929 17.1565 34.2461 19.7138 35.5248 23.7323C36.2552 26.2905 36.0722 29.0301 34.9765 31.4047V31.4045Z" fill="#524EB7"/>
<path d="M89.2266 49.3065L93.427 52.5944L89.2266 56.0653L91.0527 58.0745L97.6285 52.5943L91.0527 47.115L89.2266 49.3065Z" fill="#524EB7"/>
<path d="M76.0758 47.1143L69.5 52.5935L76.0758 58.0737L77.902 56.0645L73.8837 52.5936L77.902 49.3057L76.0758 47.1143Z" fill="#524EB7"/>
<path d="M80.4388 61.9616L77.9824 60.7466L86.6468 43.2273L89.1032 44.4422L80.4388 61.9616Z" fill="#524EB7"/>
</svg>
