<svg width="118" height="120" viewBox="0 0 118 120" fill="none" xmlns="http://www.w3.org/2000/svg">
<path d="M38.5831 64.3157C53.5874 61.5712 65.1148 48.3964 65.1148 32.4764C65.1148 14.5443 50.6592 0.0891113 32.7276 0.0891113C14.9782 0.271635 0.522949 14.7274 0.522949 32.4764C0.522949 48.3956 12.0508 61.5695 27.0546 64.3157V75.8435H22.114V109.146C22.114 115.002 26.8711 119.942 32.9102 119.942C38.7658 119.942 43.7064 115.185 43.7064 109.146V75.8435H38.7658V64.3157H38.5831ZM3.26702 32.4764C3.26702 16.1912 16.6244 2.83318 32.9102 2.83318C49.1954 2.83318 62.5534 16.1906 62.5534 32.4764C62.5534 48.7615 49.196 62.1196 32.9102 62.1196C16.4417 62.1196 3.26702 48.9448 3.26702 32.4764ZM40.7771 78.5882V109.147C40.7771 113.538 37.1176 117.198 32.7263 117.198C28.3349 117.198 24.6754 113.538 24.6754 109.147L24.6746 78.5882H29.6152V64.6816C30.7128 64.865 31.6279 64.865 32.7257 64.865C33.8234 64.865 34.7384 64.865 35.8361 64.6816V78.5882H40.7771Z" fill="#524EB7"/>
<path d="M31.4468 107.499H34.1913V110.243H31.4468V107.499Z" fill="#524EB7"/>
<path d="M31.4468 94.6895H34.1913V97.434H31.4468V94.6895Z" fill="#524EB7"/>
<path d="M31.4468 101.093H34.1913V103.838H31.4468V101.093Z" fill="#524EB7"/>
<path d="M112.325 103.289V46.7489H101.346V103.289H97.1376V64.6788H86.159V103.104H81.9503V74.1939H70.9717V103.287H67.1287V84.4399H56.1501V103.104H51.2095V105.848H117.449V103.104H112.326L112.325 103.289ZM58.8941 103.289V87.3699H64.384V103.289H58.8941ZM73.8984 103.289V76.9401H79.3882V103.289H73.8984ZM89.0859 103.289V67.425H94.5758V103.106H89.0859V103.289ZM104.091 103.289V49.493H109.581V103.289H104.091Z" fill="#524EB7"/>
<path d="M38.2156 52.4217C40.0458 51.8725 41.6927 51.1408 43.3395 50.2256L47.7309 53.1534L53.7691 47.1152L50.6587 42.9065C51.5738 41.2596 52.3055 39.6128 52.8548 37.7826L57.9787 36.8675V28.2674L52.8548 27.3523C52.3056 25.5221 51.5738 23.8753 50.6587 22.2284L53.5865 17.8371L47.5482 11.7988L43.3395 14.7266C41.5093 13.8123 39.6801 13.0806 37.8497 12.5314L36.9346 7.40747H28.3345L27.4194 12.5314C25.5892 13.0806 23.9424 13.8123 22.2955 14.7275L17.9042 11.7997L12.0494 18.0212L14.9772 22.2299C14.0621 23.8768 13.3304 25.5237 12.7811 27.3538L7.65723 28.2689V36.869L12.7811 37.7841C13.3303 39.6143 14.0621 41.2611 14.9772 42.908L12.0494 47.2993L18.0877 53.3376L22.2964 50.4098C23.9432 51.3249 25.5901 52.0566 27.4203 52.6059L28.3354 57.7298H36.9354L38.2156 52.4217ZM35.8371 50.2256L34.922 54.9827H30.8966L29.9815 50.4081L29.0672 50.043C26.8711 49.6771 25.0418 48.7621 23.2116 47.6645L22.4799 47.1153L18.6369 49.8598L15.7091 47.1153L18.4536 43.2723L17.9044 42.5405C16.8068 40.7103 15.8917 38.6976 15.3426 36.685L15.1592 35.7699L10.4021 34.8548V30.8294L14.9768 29.9142L15.1601 28.9991C15.526 26.9864 16.4411 24.9737 17.5387 23.1436L18.0879 22.4118L15.5267 18.204L18.2712 15.2762L22.1141 18.0207L22.8459 17.4715C24.6761 16.1905 26.6889 15.4587 28.7015 14.9096L29.6166 14.7263L30.5317 9.96917H34.5571L35.4722 14.5438L36.3873 14.7272C38.5834 15.0931 40.596 16.0081 42.2429 17.1057L42.9746 17.6549L46.9992 15.2764L49.7437 18.0209L46.9992 22.0463L47.5484 22.778C48.8293 24.6083 49.5611 26.621 50.1102 28.6336L50.2936 29.5487L55.0507 30.4638V34.4892L50.476 35.4043L50.2927 36.3194C49.9268 38.5156 49.0117 40.5282 47.9141 42.175L47.3649 42.9068L50.1094 46.7497L47.3649 49.4942L43.3395 46.9324L42.6077 47.4816C40.7775 48.5792 38.7648 49.4943 36.7522 50.0435L35.8371 50.2256Z" fill="#524EB7"/>
<path d="M32.7276 21.3142C26.506 21.3142 21.5654 26.4381 21.5654 32.4763C21.5654 38.6979 26.6893 43.6385 32.7276 43.6385C38.9491 43.6385 43.8897 38.5146 43.8897 32.4763C43.8897 26.4373 38.9491 21.3142 32.7276 21.3142ZM32.9101 41.0756V42.539V41.0756C28.153 41.0756 24.4933 37.2326 24.4933 32.6588C24.4933 28.0841 28.1528 24.242 32.9101 24.242C37.4847 24.242 41.3269 28.085 41.3269 32.6588C41.3277 37.2334 37.4847 40.8931 32.9101 41.0756Z" fill="#524EB7"/>
</svg>
