<svg width="40" height="27" viewBox="0 0 40 27" fill="none" xmlns="http://www.w3.org/2000/svg">
<g clip-path="url(#clip0_726_43)">
<path d="M39.1996 13.5001L39.1996 13.5034C39.1982 13.5893 39.1896 13.6869 39.1533 13.7887C39.1166 13.8912 39.0555 13.9881 38.962 14.0804L33.8368 19.5261L33.8365 19.5264C33.5281 19.855 32.9811 19.888 32.6443 19.5569C32.3306 19.2488 32.3054 18.6973 32.614 18.3708L39.1996 13.5001ZM39.1996 13.5001C39.1996 13.3903 39.1677 13.2766 39.1276 13.182C39.0875 13.0873 39.0308 12.9919 38.9644 12.922C38.9643 12.9218 38.9641 12.9216 38.9639 12.9214L33.8366 7.47329L33.8346 7.47131M39.1996 13.5001L33.8346 7.47131M33.8346 7.47131C33.5221 7.14828 33.0117 7.1119 32.6507 7.43666L32.6507 7.43671M33.8346 7.47131L32.6507 7.43671M32.6507 7.43671C32.4781 7.59214 32.3969 7.81371 32.392 8.02676M32.6507 7.43671L32.392 8.02676M32.392 8.02676C32.387 8.23956 32.4574 8.46349 32.614 8.62911L32.392 8.02676ZM36.4126 14.3409L32.6142 18.3705L32.6142 8.62936L36.4126 12.659L1.49988 12.659C1.03524 12.659 0.658911 13.0356 0.658911 13.4999C0.658911 13.9646 1.03557 14.3409 1.49988 14.3409L36.4126 14.3409Z" fill="#524EB7" stroke="#524EB7" stroke-width="0.4"/>
</g>
<defs>
<clipPath id="clip0_726_43">
<rect width="27" height="40" fill="white" transform="translate(0 27) rotate(-90)"/>
</clipPath>
</defs>
</svg>
