<svg width="120" height="120" viewBox="0 0 120 120" fill="none" xmlns="http://www.w3.org/2000/svg">
<path d="M68.7997 38.7429C67.3414 42.2076 64.0594 53.3295 70.0762 76.8508C70.2589 77.58 71.1699 79.221 73.1757 79.221C75.1813 79.221 76.0931 77.7626 76.2751 76.8508C82.6565 52.9651 79.3746 42.0254 77.7335 38.5609C79.3745 37.1025 80.1036 35.4614 80.1036 35.4614C83.0211 30.1738 79.0099 25.6153 77.7335 24.1568C76.0924 22.3331 77.0043 19.4165 77.0043 19.4165L77.5516 17.5928H75.7278C75.3632 17.5928 67.7054 17.7755 65.3344 26.8918C63.6942 33.2724 66.429 37.1018 68.8 38.7428L68.7997 38.7429ZM67.8879 27.6201C69.1643 22.8798 72.0817 21.2387 73.9048 20.6914C73.7221 22.1498 73.9048 24.338 75.5458 25.9791C78.2807 29.0785 79.0106 31.6313 77.5515 34.1844C77.5515 34.1844 76.8223 35.8254 75.1813 36.9192L73.9049 37.6483L74.634 38.9248C74.634 39.1075 80.8336 48.5883 73.3576 76.1206C73.3576 76.4851 72.993 76.4851 72.993 76.4851C72.8103 76.4851 72.6284 76.3024 72.6284 76.1206C65.5169 48.5883 71.5346 39.1068 71.5346 38.9248L72.4465 37.6483L70.9874 37.1019C70.8055 36.9192 66.0642 34.7317 67.8879 27.6202L67.8879 27.6201Z" fill="#524EB7"/>
<path d="M71.7163 57.3418H74.4511V60.0766H71.7163V57.3418Z" fill="#524EB7"/>
<path d="M71.7158 50.9609H74.4507V53.6958H71.7158V50.9609Z" fill="#524EB7"/>
<path d="M114.383 11.9395H4.98177C2.24695 11.9395 0.0585938 14.3105 0.0585938 17.0453V89.7966C0.0585938 92.5314 2.24695 94.9024 5.16441 94.9024H44.7305L37.8019 105.296H30.5085V108.031H89.4038V105.296H82.1104L75.1817 94.9024H114.748C117.483 94.9024 119.854 92.7141 119.854 89.7966L119.853 17.0453C119.488 14.3105 117.117 11.9395 114.382 11.9395H114.383ZM4.98177 14.6751H114.383C115.659 14.6751 116.753 15.7689 116.753 17.0453V81.7754L2.7932 81.7746V17.0466C2.7932 15.7701 3.70507 14.6764 4.98156 14.6764L4.98177 14.6751ZM78.4632 105.113H40.9013L47.83 94.7198L71.5337 94.7206L78.4632 105.113ZM114.383 91.985H4.98177C3.70532 91.985 2.79341 90.8912 2.79341 89.6148V84.5098H116.753V89.7974C116.753 91.0739 115.659 91.985 114.383 91.985H114.383Z" fill="#524EB7"/>
<path d="M86.6685 69.1937C86.6685 73.0231 89.0386 76.6697 92.5034 78.3107L94.509 79.2226V73.023L96.6974 71.1993L98.8857 73.023L98.8849 79.04L100.891 78.1281C104.355 76.4871 106.543 73.0223 106.543 69.1937C106.543 65.9116 104.902 62.8123 101.984 60.9884V36.0085C104.719 34.1848 106.543 31.0853 106.543 27.8032C106.543 23.9738 104.354 20.5099 100.891 18.8688L98.8849 17.9578V23.9747L96.6965 25.7984L94.5082 23.9747L94.509 17.9578L92.5034 18.8688C88.8568 20.5098 86.6685 23.9746 86.6685 27.9859C86.6685 31.268 88.3095 34.3672 91.227 36.1911V60.807C88.3095 62.6299 86.6685 65.7302 86.6685 69.1941V69.1937ZM93.2327 34.1863C90.8625 32.9098 89.4033 30.5397 89.4033 27.9867C89.4033 25.9811 90.3151 23.9755 91.7734 22.6991V25.4339L96.6966 29.6278L101.62 25.4339V22.8811C102.896 24.1575 103.808 25.9806 103.808 27.9869C103.808 30.5397 102.35 33.0927 99.9787 34.1865L99.2496 34.5511V62.4495L99.9787 62.8141C102.349 64.0905 103.808 66.4607 103.808 69.0137C103.808 71.0193 103.079 72.8431 101.62 74.1195V71.5667L96.6966 67.3728L91.7734 71.5667V74.3015C90.3151 73.0251 89.4033 71.0194 89.4033 69.0139C89.4033 66.4611 90.8616 63.9081 93.2327 62.8143L93.9619 62.4497V34.5513L93.2327 34.1863Z" fill="#524EB7"/>
<path d="M53.1174 19.78H7.71631V46.9483H52.9353L52.9362 19.78H53.1174ZM27.5914 33.2729L10.452 43.1191L10.4511 23.6092L27.5914 33.2729ZM14.2803 22.5148H46.5533L30.5076 31.8139L14.2803 22.5148ZM30.5081 34.914L46.5538 44.213H14.2808L30.5081 34.914ZM33.2437 33.273L50.3832 23.4268V43.1193L33.2437 33.273Z" fill="#524EB7"/>
<path d="M28.6857 50.4127H7.7168V76.4868H28.503V50.4127H28.6857ZM25.9509 73.7524H10.4516V53.1488H25.9509V73.7524Z" fill="#524EB7"/>
<path d="M32.332 76.4868H53.1183V50.4127H32.332V76.4868ZM35.0668 53.1492H50.3835V73.7535L35.0668 73.7527V53.1492Z" fill="#524EB7"/>
</svg>
