<svg width="122" height="122" viewBox="0 0 122 122" fill="none" xmlns="http://www.w3.org/2000/svg">
<path d="M71.814 25.3248H71.714V25.4248V52.6892V52.7892H71.814H74.5633H74.6633V52.6892V25.4248V25.3248H74.5633H71.814Z" fill="#524EB7" stroke="#524EB7" stroke-width="0.2"/>
<path d="M71.814 93.5782H71.714V93.6782V120.943V121.043H71.814H74.5633H74.6633V120.943V93.6782V93.5782H74.5633H71.814Z" fill="#524EB7" stroke="#524EB7" stroke-width="0.2"/>
<path d="M25.2544 71.8021H25.1544V71.9021V74.6466V74.7466H25.2544H52.5672H52.6672V74.6466V71.9021V71.8021H52.5672H25.2544Z" fill="#524EB7" stroke="#524EB7" stroke-width="0.2"/>
<path d="M93.6289 71.8021H93.5289V71.9021V74.6466V74.7466H93.6289H120.942H121.042V74.6466V71.9021V71.8021H120.942H93.6289Z" fill="#524EB7" stroke="#524EB7" stroke-width="0.2"/>
<path d="M67.9717 34.9392L68.0642 34.9268L67.6977 32.1823L67.6846 32.0843L67.5865 32.0963C60.0512 33.0138 52.8851 36.1321 46.8215 41.0841L46.7471 41.1449L46.8048 41.2216L48.4546 43.4177L48.5167 43.5004L48.5972 43.4356C54.2666 38.8712 61.0314 35.9519 67.9782 35.0392L67.9717 34.9392Z" fill="#524EB7" stroke="#524EB7" stroke-width="0.2"/>
<path d="M34.7736 68.1592L34.8722 68.1715L34.8851 68.073C35.7993 61.1392 38.7245 54.5681 43.114 48.9083L43.1763 48.8279L43.0949 48.767L40.8949 47.1201L40.818 47.0626L40.7574 47.1371C35.9803 53.0068 32.8562 60.1595 31.7541 67.6795L31.7393 67.7806L31.8406 67.7933L34.7736 68.1592Z" fill="#524EB7" stroke="#524EB7" stroke-width="0.2"/>
<path d="M111.336 68.1297L111.371 68.1656L111.421 68.159L114.17 67.7931L114.27 67.7799L114.256 67.6803C111.683 49.1547 97.1668 34.6633 78.6078 32.2787L78.5091 32.2661L78.4959 32.3647L78.1294 35.1092L78.1161 35.2089L78.2159 35.2216C95.4013 37.412 108.931 50.9172 111.308 68.0735L111.313 68.106L111.336 68.1295L111.336 68.1297Z" fill="#524EB7" stroke="#524EB7" stroke-width="0.2"/>
<path d="M34.7902 78.1226L34.7732 78.0239L32.0229 78.3898L31.9242 78.4029L31.937 78.5017C34.3263 97.0276 49.0257 111.885 67.5851 114.27L67.6838 114.282L67.697 114.184L68.0635 111.439L68.0768 111.339L67.977 111.327C50.7917 109.136 37.0791 95.4481 34.8849 78.1106L34.7902 78.1226Z" fill="#524EB7" stroke="#524EB7" stroke-width="0.2"/>
<path d="M78.2281 111.422L78.1294 111.439L78.4959 114.183L78.5091 114.282L78.6078 114.269C97.1671 111.885 111.867 97.2102 114.256 78.5014L114.269 78.4027L114.17 78.3896L111.421 78.0245L111.321 78.0113L111.308 78.1111C109.115 95.4488 95.402 109.137 78.216 111.327L78.2281 111.422Z" fill="#524EB7" stroke="#524EB7" stroke-width="0.2"/>
<path d="M57.4358 52.382L57.4953 52.4611L57.575 52.4025C61.0461 49.8496 65.2457 48.0275 69.6267 47.4806L69.7268 47.4681L69.7134 47.3681L69.3469 44.6236L69.3339 44.5263L69.2363 44.5375C64.4517 45.0889 59.6683 47.109 55.8062 50.0471L55.727 50.1073L55.7867 50.1867L57.4358 52.382Z" fill="#524EB7" stroke="#524EB7" stroke-width="0.2"/>
<path d="M47.237 69.805L47.3369 69.8183L47.3494 69.7183C47.8974 65.3444 49.5406 61.3351 52.0962 57.8715L52.1552 57.7916L52.0757 57.7321L49.8757 56.0852L49.7964 56.0259L49.7362 56.1046C46.7923 59.962 44.9529 64.5528 44.4007 69.3285L44.3894 69.4261L44.4868 69.4391L47.237 69.805Z" fill="#524EB7" stroke="#524EB7" stroke-width="0.2"/>
<path d="M98.8746 69.7783L98.9093 69.8113L98.9568 69.8049L101.706 69.4391L101.805 69.4259L101.792 69.3272C100.137 56.473 89.8358 46.1917 76.9589 44.5378L76.8602 44.5251L76.847 44.6237L76.4805 47.3682L76.4671 47.468L76.567 47.4807C88.0708 48.9393 97.3829 58.0537 98.8442 69.7181L98.8486 69.7535L98.8745 69.7781L98.8746 69.7783Z" fill="#524EB7" stroke="#524EB7" stroke-width="0.2"/>
<path d="M47.321 76.4063L47.2861 76.3714L47.2371 76.3779L44.4878 76.7438L44.3893 76.7569L44.4018 76.8555C46.0573 89.892 56.3578 100.174 69.2351 101.828L69.3338 101.84L69.3469 101.742L69.7135 98.9973L69.7268 98.8973L69.6267 98.8848C57.9417 97.4263 48.8112 88.131 47.3497 76.4648L47.3454 76.4307L47.3212 76.4064L47.321 76.4063Z" fill="#524EB7" stroke="#524EB7" stroke-width="0.2"/>
<path d="M101.656 76.7364L98.9566 76.3772L98.8567 76.3639L98.8442 76.4639C97.3839 88.1281 88.0709 97.2433 76.5655 98.8842L76.4673 98.8982L76.4805 98.9965L76.847 101.741L76.8602 101.84L76.9589 101.827C89.8359 100.174 100.135 89.8915 101.792 76.8547L101.83 76.5545L101.656 76.7364Z" fill="#524EB7" stroke="#524EB7" stroke-width="0.2"/>
<path d="M72.1092 74.1689L72.1798 74.2395L72.2505 74.1689L74.2668 72.1562L74.3378 72.0853L74.2666 72.0145L33.794 31.796L35.9836 20.6864L35.9939 20.634L35.9561 20.5963L16.3425 1.01736L16.2105 0.885549L16.1738 1.06849L13.6205 13.8123L1.03777 16.361L0.854977 16.398L0.986969 16.5297L20.6006 36.1086L20.6383 36.1463L20.6905 36.136L31.8202 33.9501L72.1092 74.1689ZM21.4369 33.0032L6.75911 18.1699L16.1063 16.375L16.1729 16.3623L16.1857 16.2957L17.9835 6.96533L32.8435 21.7991L31.033 31.1954L21.4369 33.0032Z" fill="#524EB7" stroke="#524EB7" stroke-width="0.2"/>
<path d="M62.6817 69.4291L62.5856 69.3948L62.5532 69.4916C62.1862 70.5907 61.815 71.8846 61.815 73.1827C61.815 79.2764 66.8093 84.2614 72.9131 84.2614C79.0169 84.2614 84.0112 79.2762 84.0112 73.1827C84.0112 67.0893 79.0169 62.1041 72.9131 62.1041C71.6217 62.1041 70.3213 62.2884 69.2025 62.8464L69.1231 62.886L69.153 62.9695L70.0697 65.5314L70.1047 65.629L70.201 65.5906C71.1068 65.229 72.011 65.0485 72.9133 65.0485C77.441 65.0485 81.0622 68.6633 81.0622 73.1828C81.0622 77.7023 77.4412 81.3172 72.9133 81.3172C68.3853 81.3172 64.7643 77.7023 64.7643 73.1828C64.7643 72.2814 64.9452 71.3789 65.3073 70.4755L65.346 70.379L65.2481 70.3441L62.6817 69.4291Z" fill="#524EB7" stroke="#524EB7" stroke-width="0.2"/>
</svg>
